<?xml version="1.0" encoding="UTF-8"?>
<svg width="640" height="480" version="1.1" viewBox="0 0 640 480" xmlns="http://www.w3.org/2000/svg">
 <g transform="translate(0,480) scale(0.1,-0.1)">
  <path d="M3200 3840 c-494 -48 -950 -292 -1245 -665 -114 -144 -225 -345 -285
  -515 -89 -252 -89 -548 0 -800 60 -170 171 -371 285 -515 295 -373 751 -617
  1245 -665 494 48 950 292 1245 665 114 144 225 345 285 515 89 252 89 548 0
  800 -60 170 -171 371 -285 515 -295 373 -751 617 -1245 665z" fill="#4A90E2"/>
  <path d="M3180 3400 l-180 -180 180 -180 180 -180 180 180 180 180 -180 180
  c-99 99 -180 180 -180 180 0 0 -81 -81 -180 -180z" fill="#FFFFFF"/>
 </g>
</svg>
